<svg id="Layer_1" data-name="Layer 1" xmlns="http://www.w3.org/2000/svg" viewBox="0 0 998 973"><defs><style>.cls-1{fill:none;stroke:#7f98ac;stroke-miterlimit:10;stroke-width:3px;}.cls-2{font-size:48px;fill:#343434;font-family:Arial-BoldItalicMT, Arial;font-weight:700;font-style:italic;}.cls-3{letter-spacing:-0.02em;}.cls-4,.cls-5{fill-rule:evenodd;}.cls-5,.cls-6{fill:#2c50a3;}.cls-7{fill:#fff;}</style></defs><ellipse class="cls-1" cx="499" cy="486.5" rx="497.5" ry="485"/><text class="cls-2" transform="translate(215.54 616.55)">YOUR LANGUAGE SCHOO<tspan class="cls-3" x="616.03" y="0">L</tspan></text><path class="cls-4" d="M324.66,535.18a5.63,5.63,0,0,1-.27-2.27,28.6,28.6,0,0,0-.87-3.75l-.22.48-1.49-7c-1.91-9.74-17.17-24.14-28.83-27.32-12.72-3.38-28.41-1.69-36.25,4-6.15,4.44-6.15,4.44-6.15.21,0-3.81-1.27-4.24-12.72-4.24h-14.6v126h25V601.15c0-11,.43-20.19.86-20.19a109,109,0,0,1,10.08,4.25,45.09,45.09,0,0,0,62.24-29.54l2.44-9.69a5.67,5.67,0,0,1,.32-3.85,5.54,5.54,0,0,1,.7-2.75A5.66,5.66,0,0,1,324.66,535.18Zm-53,31.06c-21.4,0-30.18-31.21-12.84-44.9,6.85-5.34,21.41-5.56,27.61-.43,6.43,5.14,9.42,11.76,9.42,20.53C295.81,557.05,286.82,566.24,271.62,566.24Z" transform="translate(-41 -54)"/><path class="cls-4" d="M512.64,584.43c-1.29-1.29-9.66-12.23-18.9-24s-17.81-22.73-19.1-24.24c-1.29-1.71-1.29-3.43,0-4.28,1.07-.86,9.66-9.44,18.89-19.3l17-17.59H477.37l-17.81,16.94c-10,9.32-18.44,16.94-19.29,16.94-.63,0-1.27-15.67-1.27-34.94V459H413.77l-.63,31.13-.64,30.92-.21-.33a5.64,5.64,0,0,1-.4,2.7c-.08.74-.15,1.48-.23,2.22a5.67,5.67,0,0,1-.33,2.89v1.1a5.65,5.65,0,0,1-.25,4.72l-.15,1.13a5.82,5.82,0,0,1,0,2.2,5.63,5.63,0,0,1-.12,5.32c0,1.07,0,2.14,0,3.2a5.76,5.76,0,0,1,.52,2.56c.79.34,1,5.17,1.44,17.41l.64,20.83H439V576.71c0-8.37,1.29-12,5.58-17.16,3-3.65,6.23-6.65,7.3-6.65.86,0,7.94,7.72,15.24,16.94L480.86,587h17C510.92,587.21,514.14,586.57,512.64,584.43Z" transform="translate(-41 -54)"/><path class="cls-4" d="M141.91,468.53c-4.07,1.28-10.92,5.77-15.41,9.83-13.7,13.26-13.49,36.35.43,48.33,5.78,4.7,19.26,9.62,43.88,16,12,3,17.33,9,14.12,16a14.29,14.29,0,0,1-7.92,6.63C167,568,143.19,565,133.78,560c-4.93-2.35-9.42-4.49-10.06-4.49s-3,4.49-5.57,9.84c-5.57,12.61-4.07,14.54,15.41,20.31,19.69,6,47.52,5.13,61.22-2.14,15.2-7.91,22.69-24.8,17.77-41-3.43-11.33-15.2-19.67-35.11-24.37-21.62-5.35-31-9.41-32.53-14.12-1.93-5.77,2.57-12.4,9.2-13.9,3.21-.64,7.06-1.71,8.78-2.13,4.06-1.29,25.47,3.2,32.53,6.63,5.35,2.77,5.57,2.77,9.21-7.49,2.14-5.77,3.21-11.54,2.35-12.61C202.49,467,158.82,463.18,141.91,468.53Z" transform="translate(-41 -54)"/><path class="cls-5" d="M712,526.78l.61,59.29,10.8.64,10.59.64V551h20.91s32.32-2.19,42.17-9c19.69-13.9,18.83-51.74-1.29-65.43-11.34-7.69-19.47-9-53.51-9.53H711Zm65.45-37.68c11.35,5.56,16.06,23.52,8.78,34-5.35,7.69-16.06,10.9-35.11,10.9H734V484.39l18.84.86C763.11,485.89,774.24,487.6,777.45,489.1Z" transform="translate(-41 -54)"/><path class="cls-4" d="M539.36,496.4c-12.2,4.28-18.2,9-24.83,18.82-5.14,7.91-5.78,10.9-5.78,26.51,0,16,.64,18.39,6.42,26.73,9.85,13.9,23.54,20.1,45,20.1,14.34,0,18.62-.86,26.54-5.35,5.35-3,9.85-6.41,10.28-7.48.42-1.29-2.36-5.78-5.78-10.05l-6.64-7.91-6.85,4.06c-10.49,6.41-27.18,5.77-35.53-1.28C529.51,550.07,532.08,549,569.75,549H604V538.74C603.79,506.45,571,485.07,539.36,496.4Zm32.79,24.73c11.13,11.33,9,13-15.19,13-19.7,0-21.41-.43-21.41-4.06,0-2.35,3-6.63,6.64-9.62C551.6,512.58,563.81,512.79,572.15,521.13Z" transform="translate(-41 -54)"/><path class="cls-4" d="M650.14,498c-9.49,4.7-10.14,4.7-10.14,1.07,0-3.43-1.73-4.07-13-4.07H614v92h26V561.75c0-19.47.86-26.74,3.88-32.52,4.54-9.2,13.38-13.69,23.31-12,12.3,2.35,13.81,7.06,13.81,40.22V587h28.48l-.86-34.87c-.86-40.44-2.8-46.43-19-54.56A42.87,42.87,0,0,0,650.14,498Z" transform="translate(-41 -54)"/><path class="cls-5" d="M816,538v46.61L829,587h10.53l.86-30.27.65-30.28,7.09-6.22c5.16-4.73,9-6.23,15.48-6.23H872V494.37l-9.86,1.26c-5.36.43-12.65,3-16.08,5.49-7.72,5.7-8.36,5.49-8.36-.84,0-4.86-.86-5.28-9.65-5.28H818.4Z" transform="translate(-41 -54)"/><path class="cls-5" d="M893.59,496c-20.12,7.91-29.54,23.31-28.25,46.4.85,18.18,8.35,30.15,23.11,37.63,11.56,6,33.82,6.85,45.6,1.93,24-10,34-39.77,21.83-64.36-8.56-17.11-21.83-24.59-43.67-24.16C905.58,493.48,897.23,494.76,893.59,496Zm39.17,23.74c6.21,6.84,7.07,9,7.07,19.67,0,11.12-.65,12.61-8.35,20.31-7.06,7.06-9.63,8.34-17.34,8.34-17.12,0-27.83-11.12-27.83-29.29,0-18.61,10.92-29.08,28.69-27.8C924,511.87,926.77,513.15,932.76,519.78Z" transform="translate(-41 -54)"/><path class="cls-5" d="M408.75,530.14c-.6-4.39-1-8.69-1.25-13l-1.82-3c-3.58-6.26-10.12-13.19-15.4-16.32-7.8-4.92-11-5.59-23.41-4.69-19.62,1.11-29.33,7.82-37.76,26.38l-3.65,8.26c0,.15.07.29.09.45.81,6.93.08,13.85,0,20.8h0l2.71,7.59c3,7.38,2.74,8.72-1.47,18.11-2.54,5.59-4.22,10.74-3.59,11.18.42.68,5.27-1.11,10.76-3.57,9.07-4.25,10.33-4.25,17.3-1.34,21.17,9.33,48.37-2.1,57.82-24.18.17-3.14.53-6.27.77-9.41C410.31,541.52,409.53,536,408.75,530.14Z" transform="translate(-41 -54)"/><ellipse class="cls-6" cx="327.5" cy="484" rx="45.5" ry="47"/><ellipse class="cls-7" cx="312" cy="483.5" rx="7" ry="7.5"/><ellipse class="cls-7" cx="330" cy="483.5" rx="7" ry="7.5"/><ellipse class="cls-7" cx="348" cy="483.5" rx="7" ry="7.5"/><text x="-41" y="-54"/></svg>